<?xml version="1.0" encoding="UTF-8" standalone="no"?>
<!-- Created with Inkscape (http://www.inkscape.org/) -->

<svg
   width="36.986389mm"
   height="37.015846mm"
   viewBox="0 0 36.986389 37.015846"
   version="1.1"
   id="svg8"
   xmlns="http://www.w3.org/2000/svg"
   xmlns:svg="http://www.w3.org/2000/svg"
   xmlns:rdf="http://www.w3.org/1999/02/22-rdf-syntax-ns#"
   xmlns:cc="http://creativecommons.org/ns#"
   xmlns:dc="http://purl.org/dc/elements/1.1/">
  <defs
     id="defs2">
    <marker
       style="overflow:visible"
       id="marker1546"
       refX="0"
       refY="0"
       orient="auto">
      <path
         transform="matrix(-0.2,0,0,-0.2,-1.2,0)"
         style="fill:#a05a2c;fill-opacity:1;fill-rule:evenodd;stroke:#a05a2c;stroke-width:1pt;stroke-opacity:1"
         d="M 0,0 5,-5 -12.5,0 5,5 Z"
         id="path1544" />
    </marker>
    <marker
       orient="auto"
       refY="0"
       refX="0"
       id="Arrow1Mend"
       style="overflow:visible">
      <path
         id="path4554"
         d="M 0,0 5,-5 -12.5,0 5,5 Z"
         style="fill:#b3b3b3;fill-opacity:1;fill-rule:evenodd;stroke:#b3b3b3;stroke-width:1pt;stroke-opacity:1"
         transform="matrix(-0.4,0,0,-0.4,-4,0)" />
    </marker>
    <marker
       orient="auto"
       refY="0"
       refX="0"
       id="marker4855"
       style="overflow:visible">
      <path
         id="path4853"
         d="M 0,0 5,-5 -12.5,0 5,5 Z"
         style="fill:#b3b3b3;fill-opacity:1;fill-rule:evenodd;stroke:#b3b3b3;stroke-width:1pt;stroke-opacity:1"
         transform="matrix(0.2,0,0,0.2,1.2,0)" />
    </marker>
    <marker
       orient="auto"
       refY="0"
       refX="0"
       id="Arrow1Sstart"
       style="overflow:visible">
      <path
         id="path4557"
         d="M 0,0 5,-5 -12.5,0 5,5 Z"
         style="fill:#b3b3b3;fill-opacity:1;fill-rule:evenodd;stroke:#b3b3b3;stroke-width:1pt;stroke-opacity:1"
         transform="matrix(0.2,0,0,0.2,1.2,0)" />
    </marker>
    <marker
       orient="auto"
       refY="0"
       refX="0"
       id="Arrow1Lend"
       style="overflow:visible">
      <path
         id="path4548"
         d="M 0,0 5,-5 -12.5,0 5,5 Z"
         style="fill:#b3b3b3;fill-opacity:1;fill-rule:evenodd;stroke:#b3b3b3;stroke-width:1pt;stroke-opacity:1"
         transform="matrix(-0.8,0,0,-0.8,-10,0)" />
    </marker>
  </defs>
  <metadata
     id="metadata5">
    <rdf:RDF>
      <cc:Work
         rdf:about="">
        <dc:format>image/svg+xml</dc:format>
        <dc:type
           rdf:resource="http://purl.org/dc/dcmitype/StillImage" />
      </cc:Work>
    </rdf:RDF>
  </metadata>
  <g
     id="layer4"
     style="display:inline"
     transform="translate(-39.279635,-36.947245)" />
  <g
     id="layer2"
     style="display:inline"
     transform="translate(-39.279635,-36.947245)" />
  <g
     id="layer1"
     style="display:inline"
     transform="translate(-39.279635,-36.947245)">
    <g
       id="g1206"
       transform="translate(-94.898985,0.4054054)">
      <path
         id="path1195"
         d="m 165.37712,69.399366 c -0.0487,-0.462765 -0.26835,-0.892302 -0.36385,-1.34772 -0.0303,-0.144582 -0.0585,-0.290688 -0.0661,-0.43822 -0.0594,-1.160098 0.16536,-3.48092 0.16536,-3.48092 0,0 0.67235,0.138476 1.00873,0.20671 1.32018,0.267794 3.96212,0.795496 3.96212,0.795496 0,0 -0.85583,1.197434 -1.32884,1.760216 -0.43367,0.51597 -0.87802,1.028165 -1.38014,1.477787 -0.89223,0.798937 -0.95062,0.84827 -1.96069,1.559847 m -3.96838,1.210528 c -0.10909,-0.0306 -0.22888,0.07346 -0.34737,0.08955 -0.22018,0.02989 -0.44567,-0.01294 -0.6665,0.0117 -0.20968,0.02339 -0.43408,0.0284 -0.61974,0.12863 -0.16976,0.09165 -0.34248,0.22825 -0.40925,0.40925 -0.0438,0.118723 -0.0223,0.263136 0.0298,0.37846 0.053,0.11726 0.162,0.205231 0.26871,0.27712 0.1062,0.07155 0.2103,0.08209 0.35605,0.144228 -2.39008,0.928837 -4.37508,1.00061 -6.59781,0.970385 -2.69242,-0.03661 -5.46032,-0.384135 -7.95712,-1.392325 -2.41153,-0.973754 -4.65826,-2.497403 -6.4643,-4.368737 -1.62352,-1.682213 -2.89779,-3.757661 -3.71846,-5.94676 -0.84173,-2.245261 -1.18746,-4.706049 -1.13569,-7.103343 0.0536,-2.481365 0.49463,-5.022055 1.49186,-7.294845 0.9792,-2.231697 2.48619,-4.277464 4.2791,-5.928161 1.80629,-1.663028 4.00221,-2.95912 6.30756,-3.803946 2.30521,-0.844774 4.81635,-1.17889 7.27146,-1.172363 2.49021,0.0066 5.03718,0.354322 7.36898,1.228321 2.31098,0.866194 4.42227,2.14402 6.30408,3.882877 0.60058,0.554959 3.95832,5.276868 3.95832,5.276868 0,0 -4.13851,0.572357 -6.20957,0.44281 -0.28911,-0.01808 -0.5727,-0.09383 -0.85236,-0.16935 -1.11025,-0.29983 -2.16787,-0.769456 -3.26236,-1.122532 -0.28282,-0.09124 -0.56511,-0.185922 -0.85359,-0.257247 -0.27753,-0.06862 -0.55763,-0.133333 -0.8419,-0.163705 -0.18607,-0.01988 -0.37467,-0.02587 -0.56126,-0.01169 -0.43002,0.03269 -0.85862,0.108238 -1.27455,0.222168 -1.17784,0.322624 -2.26488,0.919716 -3.42606,1.297927 -0.47651,0.155204 -0.97528,0.236759 -1.44993,0.397564 -1.05981,0.359049 -2.04967,0.906381 -3.11035,1.262848 -0.55476,0.186439 -1.13279,0.295139 -1.69549,0.456029 -0.25844,0.07389 -0.77172,0.23386 -0.77172,0.23386 0,0 -0.56577,0.337311 -0.83121,0.227498 -0.0871,-0.03604 -0.0781,-0.17473 -0.14031,-0.245554 -0.1065,-0.121233 -0.23591,-0.232732 -0.38587,-0.292331 -0.1676,-0.06661 -0.36517,-0.110383 -0.53788,-0.05846 -0.19882,0.05977 -0.3638,0.225133 -0.47942,0.397564 -0.10916,0.1628 -0.16972,0.365337 -0.17539,0.561266 -0.005,0.160638 0.11693,0.467721 0.11693,0.467721 -0.33532,0.156428 -0.27771,0.142884 -0.57196,0.368847 0,0 -0.0357,-0.203355 -0.0584,-0.304019 -0.0239,-0.106058 -0.0375,-0.216481 -0.0819,-0.315712 -0.0747,-0.166747 -0.18028,-0.321627 -0.30402,-0.456028 -0.0977,-0.106134 -0.21176,-0.201137 -0.3391,-0.268942 -0.0794,-0.04229 -0.16728,-0.08326 -0.25725,-0.08185 -0.14051,0.0022 -0.27674,0.06854 -0.39756,0.140317 -0.18033,0.10713 -0.3487,0.248233 -0.46772,0.420949 -0.10432,0.151393 -0.17043,0.33284 -0.19881,0.514494 -0.0307,0.196739 -0.01,0.40229 0.0351,0.596345 0.0502,0.217978 0.18455,0.40822 0.2573,0.619732 0.0381,0.110875 0.0935,0.339098 0.0935,0.339098 0,0 -0.32847,0.214459 -0.46773,0.350791 -0.13093,0.128178 -0.24111,0.27781 -0.33909,0.432643 -0.12584,0.198847 -0.23129,0.411774 -0.31572,0.631424 -0.12045,0.313344 -0.20362,0.641239 -0.26894,0.970522 -0.0626,0.315823 -0.0924,0.637789 -0.11691,0.95883 -0.019,0.248847 -0.026,0.498794 -0.0234,0.748354 0.006,0.561997 0.18766,1.130733 0.0877,1.6838 -0.17231,0.953383 -0.7157,1.803834 -1.15761,2.66601 -0.0538,0.104996 -0.11906,0.20378 -0.18126,0.30402 0,0 5e-5,-1.54e-4 0,-1.7e-4 -0.10681,-0.03149 -0.1356,0.179053 -0.18123,0.28063 -0.0447,0.09963 -0.091,0.206544 -0.0877,0.31572 0.004,0.131825 0.051,0.267538 0.12861,0.37417 0.0459,0.06302 0.11361,0.114267 0.18708,0.14032 0.0496,0.0176 0.10533,0.002 0.15783,0.006 0.11932,0.0091 0.35665,0.0409 0.35665,0.0409 0,0 -0.0353,0.148665 -0.0234,0.22217 0.0226,0.139464 0.0839,0.278236 0.1754,0.38587 0.0728,0.08565 0.17741,0.142545 0.28063,0.1871 0.0478,0.02061 0.1036,0.0161 0.15201,0.0351 0.25518,0.100124 0.44221,0.368482 0.71328,0.40925 0.45443,0.06835 0.91096,-0.152168 1.3447,-0.30401 0.65813,-0.230398 1.28771,-0.548272 1.88258,-0.91206 0.86655,-0.529928 1.56892,-1.300503 2.43215,-1.83581 0.1111,-0.0689 0.35079,-0.17537 0.35079,-0.17537 0,0 0.29621,-0.0083 0.44433,-0.0117 0.39364,-0.0091 0.78748,-0.03676 1.181,-0.0234 0.7117,0.02415 1.41932,0.118584 2.12814,0.18704 0.51884,0.05011 1.55517,0.16373 1.55517,0.16373 0,0 0.14725,0.443452 0.24555,0.65483 0.16779,0.360782 0.35244,0.717583 0.58466,1.04068 0.14597,0.203092 0.50287,0.55686 0.50287,0.55686 0,0 0.26006,1.439856 0.3054,2.16837 0.0106,0.17057 0.002,0.342052 -0.008,0.51264 -0.01,0.157685 -0.0185,0.316472 -0.0499,0.47129 -0.0584,0.287939 -0.15647,0.567013 -0.25629,0.84335 -0.46117,1.276745 -1.10471,2.481933 -1.57923,3.75378 -0.0527,0.141269 -0.0579,0.303832 -0.14056,0.42995 -0.0546,0.08328 -0.14883,0.132294 -0.22324,0.19844 -0.0496,0.0441 -0.0931,0.09617 -0.14883,0.13229 -0.44399,0.287936 -0.99563,0.376869 -1.44694,0.65319 -0.10535,0.0645 -0.21084,0.136171 -0.28939,0.23151 -0.0415,0.05042 -0.0753,0.110193 -0.0909,0.17363 -0.0165,0.06691 -0.0246,0.142341 -5e-5,0.20671 0.0251,0.06564 0.0857,0.113237 0.14056,0.15709 0.0887,0.07084 0.18877,0.133336 0.29766,0.16537 0.12188,0.03586 0.25344,0.03096 0.38034,0.0248 0.15342,-0.0075 0.30315,-0.04971 0.45475,-0.0744 0.40785,-0.06643 0.81104,-0.176858 1.2237,-0.19845 0.63679,-0.03332 1.27562,0.172525 1.90996,0.10749 0.12769,-0.01309 0.25261,-0.05225 0.37207,-0.0992 0.093,-0.03653 0.18414,-0.0814 0.26458,-0.14058 0.13469,-0.09909 0.24289,-0.230218 0.35654,-0.35287 0.28473,-0.307289 0.55687,-0.626853 0.81354,-0.95794 0.2883,-0.371888 0.54917,-0.764372 0.8143,-1.15312 0.29934,-0.438908 0.61966,-0.866095 0.87643,-1.33119 0.14486,-0.262385 0.25992,-0.540607 0.37207,-0.81855 0.15754,-0.390448 0.29798,-0.788179 0.42168,-1.19063 0.13627,-0.443365 0.35237,-1.34615 0.35237,-1.34615 0,0 0.0858,0.303165 0.15671,0.44271 0.0985,0.193705 0.25236,0.354109 0.36834,0.53787 0.12025,0.190515 0.23705,0.383793 0.33909,0.58465 0.14465,0.284736 0.24738,0.589195 0.38587,0.87698 0.1202,0.249784 0.25199,0.493933 0.38587,0.73666 0.10881,0.197272 0.21186,0.39873 0.3391,0.58465 0.11276,0.164766 0.26876,0.29816 0.37418,0.46772 0.10679,0.171769 0.19534,0.357006 0.25721,0.54957 0.0521,0.162307 0.0907,0.332345 0.0936,0.5028 0.002,0.13353 -0.0124,0.263608 -0.0599,0.396145"
         style="fill:#000000;stroke:none;stroke-width:0.1;stroke-linecap:butt;stroke-linejoin:miter;stroke-miterlimit:4;stroke-dasharray:none;stroke-opacity:1" />
      <path
         id="path1202"
         d="m 153.41305,62.753019 c 0,0 2.03888,1.09797 3.06358,1.637025 0.75388,0.396584 1.47337,0.871545 2.26928,1.175092 0.0535,0.0204 0.16636,0.04264 0.16636,0.04264"
         style="fill:none;stroke:#000000;stroke-width:0.8;stroke-linecap:butt;stroke-linejoin:miter;stroke-miterlimit:4;stroke-dasharray:none;stroke-opacity:1" />
    </g>
  </g>
  <g
     id="layer5"
     style="display:none"
     transform="translate(-39.279635,-36.947245)">
    <g
       style="display:inline;fill:#ff0000"
       transform="matrix(-1,0,0,1,208.86268,-0.19098293)"
       id="g1217">
      <path
         style="fill:#000000;stroke:none;stroke-width:0.1;stroke-linecap:butt;stroke-linejoin:miter;stroke-miterlimit:4;stroke-dasharray:none;stroke-opacity:1"
         d="m 162.37301,71.998027 c -0.77597,0.39869 -1.21755,0.454305 -2.10723,0.563688 -0.1913,0.02352 -0.39643,-0.0301 -0.5648,-0.123915 -0.1124,-0.06263 -0.21571,-0.15986 -0.26871,-0.27712 -0.0521,-0.115324 -0.0736,-0.259737 -0.0298,-0.37846 0.0668,-0.181 0.23949,-0.3176 0.40925,-0.40925 0.18566,-0.10023 0.41006,-0.10524 0.61974,-0.12863 0.22083,-0.02464 0.44632,0.01819 0.6665,-0.0117 0.11849,-0.01609 0.23828,-0.12015 0.43607,-0.220877 0.1362,-0.263865 0.14033,-0.344992 0.1486,-0.527473 0.008,-0.170305 -0.0415,-0.340493 -0.0936,-0.5028 -0.0619,-0.192564 -0.15042,-0.377801 -0.25721,-0.54957 -0.10542,-0.16956 -0.26142,-0.302954 -0.37418,-0.46772 -0.12724,-0.18592 -0.23029,-0.387378 -0.3391,-0.58465 -0.13388,-0.242727 -0.26567,-0.486876 -0.38587,-0.73666 -0.13849,-0.287785 -0.24122,-0.592244 -0.38587,-0.87698 -0.10204,-0.200857 -0.21884,-0.394135 -0.33909,-0.58465 -0.11598,-0.183761 -0.26984,-0.344165 -0.36834,-0.53787 -0.0709,-0.139545 -0.15671,-0.44271 -0.15671,-0.44271 0,0 -0.2161,0.902785 -0.35237,1.34615 -0.1237,0.402451 -0.26414,0.800182 -0.42168,1.19063 -0.11215,0.277943 -0.22721,0.556165 -0.37207,0.81855 -0.25677,0.465095 -0.57709,0.892282 -0.87643,1.33119 -0.26513,0.388748 -0.526,0.781232 -0.8143,1.15312 -0.25667,0.331087 -0.52881,0.650651 -0.81354,0.95794 -0.11365,0.122652 -0.22185,0.25378 -0.35654,0.35287 -0.0804,0.05918 -0.17158,0.10405 -0.26458,0.14058 -0.11946,0.04695 -0.24438,0.08611 -0.37207,0.0992 -0.63434,0.06504 -1.27317,-0.14081 -1.90996,-0.10749 -0.41266,0.02159 -0.81585,0.13202 -1.2237,0.19845 -0.1516,0.02469 -0.30133,0.0669 -0.45475,0.0744 -0.1269,0.0062 -0.25846,0.01106 -0.38034,-0.0248 -0.10889,-0.03203 -0.20896,-0.09453 -0.29766,-0.16537 -0.0549,-0.04385 -0.11546,-0.09145 -0.14056,-0.15709 -0.0246,-0.06437 -0.0164,-0.1398 5e-5,-0.20671 0.0156,-0.06344 0.0494,-0.12321 0.0909,-0.17363 0.0786,-0.09534 0.18404,-0.16701 0.28939,-0.23151 0.45131,-0.276321 1.00295,-0.365254 1.44694,-0.65319 0.0557,-0.03612 0.0992,-0.08819 0.14883,-0.13229 0.0744,-0.06615 0.16864,-0.11516 0.22324,-0.19844 0.0827,-0.126118 0.0879,-0.288681 0.14056,-0.42995 0.47452,-1.271847 1.11806,-2.477035 1.57923,-3.75378 0.0998,-0.276337 0.19789,-0.555411 0.25629,-0.84335 0.0314,-0.154818 0.0399,-0.313605 0.0499,-0.47129 0.01,-0.170588 0.0186,-0.34207 0.008,-0.51264 -0.0453,-0.728514 -0.3054,-2.16837 -0.3054,-2.16837 0,0 -0.3569,-0.353768 -0.50287,-0.55686 -0.23222,-0.323097 -0.41687,-0.679898 -0.58466,-1.04068 -0.0983,-0.211378 -0.24555,-0.65483 -0.24555,-0.65483 0,0 -1.03633,-0.11362 -1.55517,-0.16373 -0.70882,-0.06846 -1.41644,-0.16289 -2.12814,-0.18704 -0.39352,-0.01336 -0.78736,0.0143 -1.181,0.0234 -0.14812,0.0034 -0.44433,0.0117 -0.44433,0.0117 0,0 -0.23969,0.10647 -0.35079,0.17537 -0.86323,0.535307 -1.5656,1.305882 -2.43215,1.83581 -0.59487,0.363788 -1.22445,0.681662 -1.88258,0.91206 -0.43374,0.151842 -0.89027,0.37236 -1.3447,0.30401 -0.27107,-0.04077 -0.4581,-0.309126 -0.71328,-0.40925 -0.0484,-0.019 -0.10421,-0.01449 -0.15201,-0.0351 -0.10322,-0.04456 -0.20783,-0.10145 -0.28063,-0.1871 -0.0915,-0.107634 -0.1528,-0.246406 -0.1754,-0.38587 -0.0119,-0.07351 0.0234,-0.22217 0.0234,-0.22217 0,0 -0.23733,-0.0318 -0.35665,-0.0409 -0.0525,-0.004 -0.10823,0.0116 -0.15783,-0.006 -0.0735,-0.02605 -0.14118,-0.0773 -0.18708,-0.14032 -0.0776,-0.106632 -0.12461,-0.242345 -0.12861,-0.37417 -0.003,-0.109176 0.043,-0.21609 0.0877,-0.31572 0.0456,-0.101577 0.0744,-0.31212 0.18123,-0.28063 5e-5,1.6e-5 0,1.7e-4 0,1.7e-4 0.0622,-0.10024 0.12746,-0.199024 0.18126,-0.30402 0.44191,-0.862176 0.9853,-1.712627 1.15761,-2.66601 0.1,-0.553067 -0.0817,-1.121803 -0.0877,-1.6838 -0.003,-0.24956 0.004,-0.499507 0.0234,-0.748354 0.0245,-0.321041 0.0543,-0.643007 0.11691,-0.95883 0.0653,-0.329283 0.14849,-0.657178 0.26894,-0.970522 0.0844,-0.21965 0.18988,-0.432577 0.31572,-0.631424 0.098,-0.154833 0.20816,-0.304465 0.33909,-0.432643 0.13926,-0.136332 0.46773,-0.350791 0.46773,-0.350791 0,0 -0.0554,-0.228223 -0.0935,-0.339098 -0.0727,-0.211512 -0.2071,-0.401754 -0.2573,-0.619732 -0.0451,-0.194055 -0.0658,-0.399606 -0.0351,-0.596345 0.0284,-0.181654 0.0945,-0.363101 0.19881,-0.514494 0.11902,-0.172716 0.28739,-0.313819 0.46772,-0.420949 0.12082,-0.07178 0.25705,-0.138117 0.39756,-0.140317 0.09,-0.0014 0.17785,0.03956 0.25725,0.08185 0.12734,0.0678 0.2414,0.162808 0.3391,0.268942 0.12374,0.134401 0.22932,0.289281 0.30402,0.456028 0.0444,0.09923 0.058,0.209654 0.0819,0.315712 0.0227,0.100664 0.0584,0.304019 0.0584,0.304019 0.29425,-0.225963 0.23664,-0.212419 0.57196,-0.368847 0,0 -0.12193,-0.307083 -0.11693,-0.467721 0.006,-0.195929 0.0662,-0.398466 0.17539,-0.561266 0.11562,-0.172431 0.2806,-0.337794 0.47942,-0.397564 0.17271,-0.05192 0.37028,-0.0082 0.53788,0.05846 0.14996,0.0596 0.27937,0.171098 0.38587,0.292331 0.0622,0.07082 0.0532,0.209514 0.14031,0.245554 0.26544,0.109813 0.83121,-0.227498 0.83121,-0.227498 0,0 0.51328,-0.15997 0.77172,-0.23386 0.5627,-0.16089 1.14073,-0.26959 1.69549,-0.456029 1.06068,-0.356467 2.05054,-0.903799 3.11035,-1.262848 0.47465,-0.160805 0.97342,-0.24236 1.44993,-0.397564 1.16118,-0.378211 2.24822,-0.975303 3.42606,-1.297927 0.41593,-0.11393 0.84453,-0.189478 1.27455,-0.222168 0.18659,-0.01418 0.37519,-0.0082 0.56126,0.01169 0.28427,0.03037 0.56437,0.09508 0.8419,0.163705 0.28848,0.07132 0.57077,0.166007 0.85359,0.257247 1.09449,0.353076 2.15211,0.822702 3.26236,1.122532 0.27966,0.07552 0.56323,0.151544 0.85236,0.16935 2.01687,0.124212 6.04587,-0.44281 6.04587,-0.44281 0,0 1.35582,3.712047 1.31522,4.528765 -0.0577,1.161017 0.46992,6.22698 -0.17865,9.237738 -0.31427,1.45889 -0.16287,0.843776 -1.7641,4.11486 0,0 -2.93234,-0.204352 -4.25252,-0.472146 -0.33638,-0.06823 -1.00873,-0.20671 -1.00873,-0.20671 0,0 -0.22476,2.320822 -0.16536,3.48092 0.008,0.147532 0.0389,0.293019 0.0661,0.43822 0.13227,0.706198 0.47885,1.469607 0.47166,2.1032 -0.43999,0.428707 -1.2286,0.892142 -1.7002,1.146229 -0.47159,0.254086 -1.02373,0.497605 -1.41172,0.696952 z"
         id="path1213" />
      <path
         style="fill:none;stroke:#ffffff;stroke-width:0.8;stroke-linecap:butt;stroke-linejoin:miter;stroke-miterlimit:4;stroke-dasharray:none;stroke-opacity:1"
         d="m 153.41305,62.753019 c 0,0 2.03888,1.09797 3.06358,1.637025 0.75388,0.396584 1.47337,0.871545 2.26928,1.175092 0.0535,0.0204 0.16636,0.04264 0.16636,0.04264"
         id="path1215" />
    </g>
  </g>
  <g
     id="layer3"
     style="display:inline"
     transform="translate(-39.279635,-36.947245)" />
</svg>
